# xmcd
# 
# Track frame offsets:
#     150
#     11625
#     20825
#     28775
#     39875
#     48000
#     58325
#     67000
#     77575
#     89575
#     103750
#     118825
#     127600
#     138250
#     151000
#     159000
#     169750
#     178575
#     189375
#     202150
#     213050
#     222075
# 
# Disc length: 3106
# 
# Revision: 0
# Processed by: cddbd v1.5.2PL0 Copyright (c) Steve Scherf et al.
# Submitted via: fre:ac v1.0.17
# 
DISCID=230c2016
DTITLE=Roger Miller - Roger Miller - King of the Road
DYEAR=0
DGENRE=Country
TTITLE0=King of the Road
TTITLE1=Chug-A-Lug
TTITLE2=Dang Me
TTITLE3=Husbands and Wives
TTITLE4=In the Summertime
TTITLE5=Engine Engine #9
TTITLE6=Can't Roller Skate in a Buffalo Herd
TTITLE7=Release Me
TTITLE8=Walkin' in the Sunshine
TTITLE9=My Elusive Dreams
TTITLE10=Me and Bobby Mcgee
TTITLE11=England Swings
TTITLE12=Kansas City Star
TTITLE13=The Last Word in Lonesome Is Me
TTITLE14=Do-Wack-A-Do
TTITLE15=When Two Worlds Collide
TTITLE16=Billy Bayou
TTITLE17=Burning Bridges
TTITLE18=Heartaches by the Number
TTITLE19=Don't We All Have the Right to Be Wrong
TTITLE20=My Uncle Used to Love Me (But She Died)
TTITLE21=Everything's Coming Up Roses
EXTD=ID3G:   2
EXTT0=
EXTT1=
EXTT2=
EXTT3=
EXTT4=
EXTT5=
EXTT6=
EXTT7=
EXTT8=
EXTT9=
EXTT10=
EXTT11=
EXTT12=
EXTT13=
EXTT14=
EXTT15=
EXTT16=
EXTT17=
EXTT18=
EXTT19=
EXTT20=
EXTT21=
PLAYORDER=
